<svg width="500" height="500" viewBox="0 0 500 500" fill="none" xmlns="http://www.w3.org/2000/svg">
<mask id="mask0_2938_11070" style="mask-type:luminance" maskUnits="userSpaceOnUse" x="195" y="202" width="122" height="116">
<path d="M195.854 202.667H316.854V317.156H195.854V202.667Z" fill="white"/>
</mask>
<g mask="url(#mask0_2938_11070)">
<path d="M252.901 203.495C252.583 205.047 252.109 206.536 251.562 208.01C251.016 209.484 250.385 210.927 249.677 212.333C248.255 215.141 246.562 217.828 244.583 220.297C243.594 221.531 242.547 222.724 241.443 223.859C240.323 224.979 239.161 226.068 237.937 227.083C236.714 228.094 235.448 229.057 234.115 229.932L233.161 230.578C233.021 230.677 232.885 230.781 232.771 230.88C232.656 230.974 232.552 231.078 232.505 231.135C232.484 231.161 232.484 231.187 232.516 231.13C232.526 231.104 232.552 231.052 232.568 230.953C232.589 230.859 232.589 230.703 232.536 230.552C232.484 230.396 232.391 230.276 232.323 230.214C232.255 230.146 232.208 230.12 232.177 230.104C232.125 230.078 232.141 230.083 232.172 230.089C232.245 230.099 232.385 230.104 232.531 230.104C232.682 230.099 232.844 230.089 233.01 230.068C233.177 230.052 233.354 230.026 233.526 230L234.078 229.911L235.255 229.729C236.042 229.609 236.828 229.526 237.615 229.422C238.396 229.349 239.182 229.26 239.969 229.198C240.755 229.141 241.542 229.068 242.328 229.031C245.469 228.844 248.615 228.771 251.755 228.792C254.896 228.818 258.036 228.932 261.172 229.141L263.526 229.318L265.88 229.536L268.229 229.797L270.599 230.109C271.302 230.214 272.089 230.599 272.609 231.214C273.141 231.828 273.406 232.594 273.427 233.349C273.448 234.104 273.219 234.896 272.703 235.542C272.453 235.859 272.13 236.135 271.781 236.339C271.609 236.437 271.427 236.521 271.25 236.583C271.161 236.62 271.068 236.651 270.979 236.672L270.734 236.734L268.49 237.25C268.115 237.339 267.74 237.417 267.365 237.51L266.25 237.797C263.266 238.531 260.318 239.422 257.38 240.328L255.193 241.052L254.094 241.417L253.01 241.802L250.833 242.578L248.677 243.396C247.234 243.932 245.818 244.531 244.391 245.099C243.677 245.396 242.974 245.703 242.266 246.005C241.562 246.312 240.849 246.604 240.156 246.932C234.552 249.469 229.062 252.266 223.807 255.437C223.151 255.833 222.495 256.224 221.844 256.63L219.906 257.865L219.073 258.396C219.042 258.427 219.062 258.401 219.057 258.391C219.057 258.375 219.052 258.401 219.057 258.432C219.068 258.469 219.089 258.495 219.083 258.49L226.932 257.521C233.13 256.812 239.344 256.167 245.578 255.719C251.812 255.271 258.068 254.964 264.333 254.984C267.469 255 270.609 255.099 273.75 255.37C275.323 255.521 276.891 255.682 278.453 255.958C278.849 256.016 279.234 256.104 279.625 256.177L280.214 256.292C280.255 256.302 280.323 256.318 280.391 256.333C280.453 256.354 280.516 256.365 280.583 256.391C280.708 256.427 280.833 256.479 280.958 256.536C281.453 256.776 281.891 257.172 282.161 257.646C282.443 258.12 282.578 258.661 282.562 259.193C282.552 259.724 282.406 260.26 282.104 260.719C281.812 261.177 281.37 261.547 280.88 261.755C280.76 261.812 280.635 261.849 280.516 261.891L280.229 261.974L279.667 262.13L278.542 262.453L274.052 263.729C271.057 264.578 268.073 265.453 265.083 266.328C259.115 268.083 253.161 269.896 247.234 271.781C244.271 272.724 241.318 273.687 238.365 274.672C235.417 275.661 232.484 276.682 229.552 277.724C223.698 279.802 217.885 282.016 212.224 284.505L210.109 285.464L209.062 285.958L208.542 286.203L208.297 286.323C208.26 286.344 208.234 286.359 208.214 286.38C208.135 286.448 208.115 286.505 208.115 286.62C208.115 286.729 208.187 286.854 208.25 286.901C208.286 286.927 208.312 286.937 208.349 286.948C208.37 286.948 208.391 286.953 208.417 286.953C208.432 286.948 208.443 286.953 208.458 286.948L208.536 286.937L209.693 286.781C212.781 286.365 215.87 285.964 218.964 285.573C225.146 284.786 231.344 284.068 237.547 283.427C240.651 283.109 243.755 282.802 246.87 282.536C249.979 282.276 253.094 282.036 256.214 281.839C262.448 281.427 268.708 281.193 275 281.234C278.146 281.26 281.297 281.365 284.469 281.635C286.057 281.776 287.646 281.953 289.245 282.208C290.849 282.469 292.453 282.786 294.078 283.292L294.708 283.5C295.203 283.672 295.719 284.01 296.083 284.484C296.453 284.953 296.667 285.521 296.719 286.068C296.771 286.62 296.682 287.172 296.443 287.687C296.208 288.203 295.802 288.677 295.302 288.99C295.057 289.141 294.792 289.26 294.531 289.339C294.417 289.37 294.224 289.411 294.214 289.411L294.073 289.443L292.922 289.677L288.333 290.589L279.182 292.411C273.089 293.63 267.005 294.896 260.943 296.219C254.875 297.557 248.823 298.911 242.797 300.375C239.781 301.099 236.771 301.844 233.771 302.615C230.771 303.396 227.776 304.182 224.797 305.016C221.812 305.839 218.849 306.703 215.896 307.615C212.943 308.516 210.01 309.474 207.104 310.479L204.932 311.255C204.208 311.516 203.495 311.792 202.776 312.062L201.745 312.453C201.531 312.542 201.297 312.667 201.073 312.812C200.849 312.958 200.641 313.13 200.474 313.292C200.307 313.443 200.187 313.62 200.182 313.635C200.177 313.641 200.214 313.589 200.229 313.406C200.24 313.312 200.229 313.187 200.198 313.047C200.167 312.911 200.109 312.76 200.031 312.651C199.885 312.422 199.745 312.349 199.719 312.333C199.677 312.312 199.719 312.333 199.786 312.354C199.937 312.401 200.198 312.443 200.49 312.464C200.786 312.484 201.109 312.49 201.448 312.479C202.802 312.432 204.281 312.208 205.745 311.937C206.479 311.797 207.219 311.641 207.958 311.474C208.703 311.307 209.417 311.125 210.198 310.943C211.734 310.578 213.266 310.229 214.807 309.906C217.88 309.255 220.964 308.677 224.052 308.146C227.141 307.615 230.24 307.141 233.339 306.724C236.443 306.302 239.547 305.922 242.656 305.589C245.766 305.25 248.88 304.953 251.995 304.698C255.115 304.453 258.234 304.255 261.359 304.099C267.604 303.781 273.859 303.646 280.115 303.776C286.365 303.885 292.62 304.266 298.833 305.047C301.937 305.437 305.031 305.953 308.089 306.615C309.62 306.943 311.135 307.328 312.641 307.76C314.146 308.193 315.635 308.677 317.094 309.24L316.953 309.641C313.995 308.719 310.958 308.068 307.906 307.562C306.38 307.312 304.844 307.099 303.307 306.922C301.771 306.75 300.229 306.599 298.687 306.474C295.599 306.229 292.505 306.078 289.406 306.016C286.307 305.948 283.208 305.943 280.115 306.005C277.016 306.062 273.917 306.187 270.823 306.354C267.729 306.51 264.635 306.724 261.547 306.979C258.458 307.229 255.375 307.531 252.297 307.87C249.214 308.203 246.141 308.573 243.068 308.984C236.927 309.802 230.818 310.807 224.74 311.948C221.703 312.526 218.677 313.151 215.677 313.844C214.172 314.187 212.677 314.557 211.193 314.937C210.464 315.13 209.667 315.333 208.896 315.516C208.12 315.698 207.339 315.875 206.547 316.031C204.953 316.344 203.354 316.62 201.594 316.703C201.156 316.719 200.703 316.724 200.219 316.693C199.734 316.661 199.219 316.604 198.62 316.443C198.318 316.354 197.984 316.24 197.609 316.031C197.245 315.823 196.797 315.495 196.437 314.943C196.068 314.391 195.917 313.63 195.974 313.073C196.021 312.5 196.187 312.073 196.354 311.729C196.703 311.052 197.089 310.62 197.474 310.234C197.865 309.849 198.266 309.531 198.693 309.245C199.12 308.958 199.568 308.708 200.068 308.495L200.25 308.417L200.391 308.365L200.667 308.255L201.214 308.042C201.948 307.755 202.682 307.458 203.422 307.182L205.635 306.365C211.552 304.219 217.547 302.349 223.568 300.641C235.615 297.224 247.792 294.396 260.01 291.854C266.12 290.583 272.24 289.38 278.365 288.219L287.557 286.51L292.141 285.661L293.276 285.448C293.62 285.38 293.276 285.437 293.146 285.542C292.979 285.651 292.839 285.812 292.766 285.974C292.693 286.141 292.672 286.297 292.687 286.458C292.703 286.625 292.771 286.807 292.896 286.974C293.026 287.135 293.208 287.25 293.333 287.292L292.854 287.13C291.516 286.693 290.068 286.38 288.599 286.125C287.125 285.87 285.625 285.677 284.115 285.531C281.083 285.234 278.016 285.089 274.937 285.01C268.781 284.859 262.583 285.026 256.391 285.26C244.005 285.797 231.604 286.729 219.224 287.922C216.13 288.219 213.036 288.536 209.943 288.859L208.786 288.984C208.75 288.984 208.646 288.995 208.573 289C208.495 289.005 208.406 289 208.323 289C208.156 288.99 207.984 288.964 207.818 288.917C207.479 288.818 207.151 288.641 206.901 288.406C206.385 287.927 206.12 287.281 206.13 286.609C206.13 286.276 206.208 285.932 206.365 285.62C206.521 285.302 206.755 285.031 207.026 284.828C207.156 284.729 207.297 284.646 207.437 284.578L207.719 284.453L208.255 284.214L209.333 283.729L211.495 282.812C214.391 281.615 217.307 280.5 220.24 279.432C223.177 278.365 226.115 277.323 229.068 276.323C240.88 272.328 252.786 268.661 264.703 265.052L273.646 262.344L278.115 260.995L279.786 260.479L280.057 260.396C280.12 260.375 280.182 260.354 280.234 260.323C280.682 260.12 280.943 259.677 280.937 259.177C280.937 258.932 280.865 258.687 280.745 258.495C280.625 258.297 280.453 258.156 280.245 258.062C280.193 258.036 280.135 258.016 280.078 258C280.052 257.99 280.016 257.984 279.99 257.979C279.958 257.974 279.932 257.964 279.88 257.958L279.318 257.865C278.943 257.802 278.568 257.734 278.187 257.687C276.677 257.474 275.146 257.359 273.615 257.266C270.542 257.104 267.453 257.089 264.365 257.193C258.187 257.401 252.005 257.937 245.844 258.615C239.682 259.307 233.526 260.099 227.38 261L222.771 261.667L220.469 262.01L219.891 262.094L219.583 262.141C219.406 262.161 219.224 262.177 219.036 262.172C218.297 262.172 217.479 261.922 216.859 261.448C216.234 260.979 215.786 260.339 215.542 259.635C215.297 258.937 215.25 258.151 215.458 257.385C215.661 256.625 216.146 255.932 216.724 255.469C217.068 255.203 217.167 255.161 217.344 255.036L217.839 254.714L219.823 253.417C220.49 252.995 221.167 252.589 221.839 252.177C223.177 251.333 224.557 250.573 225.917 249.776C226.604 249.391 227.302 249.026 227.995 248.646C228.687 248.271 229.38 247.891 230.083 247.536L232.187 246.464C232.891 246.099 233.604 245.776 234.312 245.432C235.729 244.74 237.167 244.099 238.604 243.458C244.359 240.896 250.276 238.719 256.292 236.849C259.307 235.943 262.339 235.083 265.411 234.375L266.562 234.099C266.943 234.01 267.333 233.932 267.719 233.849L270.031 233.359C270.125 233.333 270.042 233.359 270.031 233.396C270.005 233.437 270.021 233.437 270.026 233.417C270.031 233.396 270.021 233.385 270.047 233.406C270.062 233.427 270.115 233.432 270.052 233.411L267.802 233.073L265.516 232.771L263.224 232.516L260.927 232.297C257.859 232.021 254.776 231.839 251.698 231.74C248.615 231.646 245.526 231.625 242.453 231.724C240.917 231.776 239.38 231.859 237.854 231.969C237.094 232.042 236.328 232.094 235.573 232.187L234.437 232.323L233.828 232.391C233.62 232.411 233.406 232.432 233.182 232.443C232.964 232.453 232.74 232.458 232.5 232.448C232.255 232.437 232.005 232.422 231.698 232.354C231.536 232.312 231.365 232.271 231.141 232.151C231.026 232.094 230.896 232.016 230.755 231.88C230.615 231.75 230.464 231.547 230.38 231.302C230.297 231.057 230.292 230.802 230.323 230.615C230.354 230.417 230.411 230.276 230.469 230.161C230.583 229.927 230.698 229.792 230.802 229.672C231.016 229.437 231.208 229.286 231.396 229.141C231.589 229 231.771 228.875 231.958 228.76L232.964 228.141C234.266 227.354 235.505 226.474 236.729 225.562C237.948 224.646 239.104 223.651 240.234 222.62C241.349 221.578 242.411 220.474 243.422 219.328C245.443 217.026 247.245 214.521 248.776 211.849C249.542 210.516 250.255 209.146 250.88 207.734C251.193 207.031 251.49 206.318 251.76 205.594C252.026 204.87 252.286 204.135 252.484 203.401L252.901 203.495Z" fill="#5C8D47"/>
</g>
<mask id="mask1_2938_11070" style="mask-type:luminance" maskUnits="userSpaceOnUse" x="244" y="198" width="15" height="13">
<path d="M244 198.156H258.667V210.667H244V198.156Z" fill="white"/>
</mask>
<g mask="url(#mask1_2938_11070)">
<path d="M255.365 209.776L251.5 207.089L247.755 209.932L249.115 205.432L245.255 202.745L249.958 202.651L251.318 198.151L252.865 202.589L257.563 202.49L253.818 205.333L255.365 209.776Z" fill="#5C8D47"/>
</g>
<mask id="mask2_2938_11070" style="mask-type:luminance" maskUnits="userSpaceOnUse" x="123" y="116" width="253" height="267">
<path d="M123.812 116.812H375.813V382.813H123.812V116.812Z" fill="white"/>
</mask>
<g mask="url(#mask2_2938_11070)">
<path d="M198.698 239.49C199.484 239.458 200.234 239.625 200.917 239.964C201.599 240.292 202.219 240.786 202.734 241.406C203.255 242.026 203.682 242.776 203.969 243.615C204.26 244.453 204.422 245.375 204.422 246.349C204.422 247.177 204.307 247.969 204.094 248.708C203.885 249.448 203.578 250.135 203.193 250.734C202.807 251.344 202.344 251.87 201.833 252.297C201.313 252.719 200.74 253.052 200.13 253.255V267.802C200.74 268.005 201.313 268.333 201.833 268.76C202.344 269.182 202.807 269.714 203.193 270.313C203.578 270.917 203.885 271.599 204.094 272.333C204.307 273.068 204.422 273.859 204.422 274.682C204.422 275.661 204.26 276.589 203.969 277.427C203.682 278.26 203.255 279.01 202.734 279.63C202.219 280.245 201.599 280.74 200.917 281.073C200.234 281.401 199.484 281.568 198.698 281.536C197.917 281.505 197.172 281.286 196.5 280.906C195.823 280.531 195.224 280 194.719 279.354C194.214 278.708 193.807 277.948 193.526 277.109C193.25 276.271 193.089 275.354 193.089 274.396C193.089 273.589 193.198 272.818 193.406 272.109C193.609 271.396 193.906 270.74 194.276 270.156C194.651 269.578 195.094 269.073 195.604 268.667C196.109 268.26 196.672 267.953 197.271 267.766V253.292C196.672 253.104 196.109 252.797 195.604 252.391C195.094 251.979 194.651 251.474 194.276 250.891C193.906 250.313 193.609 249.656 193.406 248.938C193.198 248.219 193.089 247.448 193.089 246.635C193.089 245.682 193.25 244.766 193.526 243.932C193.807 243.094 194.214 242.328 194.719 241.688C195.224 241.036 195.823 240.5 196.5 240.125C197.172 239.74 197.917 239.521 198.698 239.49ZM301.276 239.49C302.057 239.521 302.802 239.74 303.469 240.125C304.146 240.5 304.75 241.036 305.25 241.688C305.76 242.328 306.167 243.094 306.448 243.932C306.724 244.766 306.88 245.682 306.88 246.635C306.88 247.448 306.771 248.219 306.568 248.938C306.359 249.656 306.068 250.313 305.698 250.891C305.323 251.474 304.875 251.979 304.37 252.391C303.865 252.797 303.302 253.104 302.698 253.292V267.766C303.302 267.953 303.865 268.26 304.37 268.667C304.875 269.073 305.323 269.573 305.698 270.156C306.068 270.74 306.359 271.396 306.568 272.109C306.771 272.818 306.88 273.589 306.88 274.396C306.88 275.354 306.724 276.271 306.448 277.109C306.167 277.948 305.76 278.708 305.25 279.354C304.75 280 304.146 280.531 303.469 280.906C302.802 281.286 302.057 281.505 301.276 281.536C300.484 281.568 299.74 281.401 299.057 281.073C298.375 280.74 297.755 280.245 297.234 279.63C296.714 279.01 296.297 278.26 296.005 277.427C295.708 276.589 295.552 275.661 295.552 274.682C295.552 273.859 295.667 273.068 295.88 272.333C296.094 271.599 296.401 270.917 296.786 270.313C297.167 269.714 297.63 269.182 298.151 268.76C298.672 268.333 299.25 268.005 299.865 267.802V253.255C299.25 253.052 298.672 252.719 298.151 252.297C297.63 251.87 297.167 251.344 296.786 250.734C296.401 250.135 296.094 249.448 295.88 248.708C295.667 247.969 295.552 247.177 295.552 246.349C295.552 245.375 295.708 244.453 296.005 243.615C296.297 242.776 296.714 242.026 297.234 241.406C297.755 240.786 298.375 240.292 299.057 239.964C299.74 239.625 300.484 239.458 301.276 239.49ZM362.146 334.12H355.135V186.911H362.146V334.12ZM144.839 186.911V334.12H137.828V186.911H144.839ZM123.812 116.812V383.188H137.828V348.135H144.839V383.188L211.432 369.167V151.859L144.839 137.844V172.891H137.828V130.833H362.146V172.891H355.135V137.844L288.542 151.859V369.167L355.135 383.188V348.135H362.146V383.188H376.167V116.812H123.812Z" fill="#4A6FA5"/>
</g>
<path d="M52.5885 336.068C-8.67189 204.667 79.9427 51.2032 223.901 37.1563C268.328 32.7657 314.172 42.724 352.359 65.8177C313.589 44.3073 268.208 35.1355 224.214 40.1615C82.1771 55.9584 -3.43751 205.026 52.5885 336.068Z" fill="#C10B0E"/>
<path d="M433.724 150.146C508.635 286.76 413.438 455.151 258.172 462.833C210.792 465.224 162.651 451.25 124.411 423.198C163.359 449.708 211.052 462.854 258.005 459.818C411.052 450.458 503.375 286.375 433.724 150.146Z" fill="#C10B0E"/>
<path d="M400.693 68.8334L403.51 97.0105L433.229 75.8334L408.453 102.625L430.224 107.156L407.979 110.089L429.156 139.813L402.365 115.031L397.667 143.859L394.901 114.557L365.177 135.74L389.958 108.943L368.536 102.688L390.432 101.479L369.255 71.7605L396.047 96.5365L400.693 68.8334Z" fill="#B8A65D"/>
<path d="M84.0365 347.578L86.849 375.755L116.573 354.578L91.7917 381.37L113.568 385.901L91.3178 388.839L112.5 418.557L85.7032 393.781L81.0052 422.604L78.2396 393.302L48.5209 414.484L73.2969 387.688L51.8802 381.432L73.7709 380.224L52.5938 350.505L79.3855 375.281L84.0365 347.578Z" fill="#B8A65D"/>
<path d="M418.266 149.484L419.391 160.766L431.292 152.286L421.37 163.016L430.089 164.828L421.182 166.005L429.661 177.906L418.932 167.984L417.052 179.526L415.943 167.792L404.042 176.271L413.964 165.547L405.391 163.036L414.156 162.557L405.677 150.656L416.401 160.578L418.266 149.484Z" fill="#B8A65D"/>
<path d="M444.167 121.729L444.729 127.37L450.682 123.13L445.719 128.49L450.078 129.401L445.625 129.984L449.865 135.937L444.5 130.974L443.563 136.745L443.005 130.88L437.057 135.12L442.016 129.755L437.729 128.505L442.115 128.26L437.875 122.312L443.24 127.271L444.167 121.729Z" fill="#B8A65D"/>
<path d="M437.224 193.734L437.792 199.375L443.74 195.135L438.781 200.5L443.141 201.406L438.682 201.995L442.927 207.948L437.562 202.984L436.62 208.755L436.068 202.891L430.115 207.13L435.078 201.766L430.786 200.51L435.172 200.271L430.932 194.323L436.297 199.281L437.224 193.734Z" fill="#B8A65D"/>
<path d="M461.859 150.349L462.703 158.813L471.63 152.453L464.187 160.5L470.724 161.859L464.047 162.74L470.406 171.667L462.359 164.224L460.948 172.88L460.115 164.083L451.193 170.443L458.63 162.396L452.198 160.516L458.776 160.151L452.417 151.229L460.463 158.667L461.859 150.349Z" fill="#B8A65D"/>
<path d="M360.474 84.5312L349.422 81.9791L359.344 71.2552L347.443 79.7343L346.75 70.8541L344.453 79.5416L333.729 69.6198L342.208 81.5208L330.521 81.9218L342.016 84.5104L332.094 95.2395L343.995 86.7604L345.396 95.5833L346.984 86.9479L357.714 96.8698L349.234 84.9687L360.474 84.5312Z" fill="#B8A65D"/>
<path d="M391.292 62.3593L385.766 61.0833L390.729 55.7187L384.776 59.9583L384.432 55.5208L383.281 59.8645L377.917 54.901L382.156 60.8541L376.312 61.052L382.063 62.3489L377.104 67.7135L383.052 63.4739L383.75 67.8854L384.547 63.5677L389.911 68.526L385.672 62.5781L391.292 62.3593Z" fill="#B8A65D"/>
<path d="M318.984 60.1094L313.458 58.8333L318.422 53.4688L312.469 57.7083L312.125 53.2708L310.974 57.6146L305.609 52.6562L309.849 58.6042L304.005 58.8073L309.755 60.099L304.797 65.4635L310.745 61.224L311.443 65.6354L312.24 61.3177L317.604 66.2813L313.365 60.3281L318.984 60.1094Z" fill="#B8A65D"/>
<path d="M365.141 41.1823L356.854 39.2708L364.297 31.224L355.37 37.5833L354.854 30.9219L353.13 37.4375L345.083 30L351.443 38.9219L342.677 39.224L351.302 41.1667L343.859 49.2135L352.786 42.8542L353.833 49.4688L355.026 42.9948L363.073 50.4375L356.714 41.5104L365.141 41.1823Z" fill="#B8A65D"/>
<path d="M262.99 23.7396L263.344 27.25L267.042 24.6094L263.958 27.948L266.672 28.5157L263.896 28.8802L266.536 32.5834L263.198 29.4948L262.615 33.0834L262.271 29.4375L258.568 32.073L261.651 28.7344L258.984 27.9584L261.714 27.8073L259.073 24.1042L262.411 27.1927L262.99 23.7396Z" fill="#B8A65D"/>
<path d="M318.469 26.7969L318.792 30.0417L322.214 27.6042L319.359 30.6875L321.865 31.2083L319.307 31.5469L321.745 34.9635L318.661 32.1146L318.12 35.4323L317.802 32.0573L314.38 34.4948L317.229 31.4115L314.766 30.6927L317.286 30.5521L314.849 27.1354L317.932 29.9844L318.469 26.7969Z" fill="#B8A65D"/>
<path d="M285.099 49.2188L285.422 52.4635L288.844 50.026L285.99 53.1094L288.495 53.6302L285.937 53.9688L288.375 57.3906L285.292 54.5365L284.75 57.8542L284.432 54.4844L281.01 56.9219L283.865 53.8385L281.396 53.1146L283.917 52.9792L281.479 49.5573L284.562 52.4063L285.099 49.2188Z" fill="#B8A65D"/>
<mask id="mask3_2938_11070" style="mask-type:luminance" maskUnits="userSpaceOnUse" x="286" y="15" width="14" height="15">
<path d="M286.667 15.4635H300V29.3333H286.667V15.4635Z" fill="white"/>
</mask>
<g mask="url(#mask3_2938_11070)">
<path d="M293.073 15.4635L293.562 20.3281L298.693 16.6718L294.417 21.2968L298.172 22.0781L294.333 22.5885L297.99 27.7187L293.365 23.4427L292.552 28.4166L292.073 23.3593L286.943 27.0156L291.224 22.3906L287.526 21.3073L291.302 21.0989L287.646 15.9687L292.271 20.2448L293.073 15.4635Z" fill="#B8A65D"/>
</g>
<path d="M472.953 254.052L469.516 253.26L472.604 249.922L468.901 252.557L468.688 249.797L467.974 252.5L464.635 249.411L467.271 253.115L463.635 253.24L467.214 254.047L464.125 257.385L467.828 254.745L468.266 257.49L468.76 254.802L472.099 257.891L469.458 254.188L472.953 254.052Z" fill="#B8A65D"/>
<path d="M476.958 198.635L473.786 197.901L476.635 194.818L473.213 197.255L473.016 194.708L472.354 197.203L469.271 194.349L471.708 197.771L468.349 197.885L471.656 198.63L468.802 201.714L472.224 199.276L472.625 201.813L473.083 199.333L476.167 202.182L473.729 198.76L476.958 198.635Z" fill="#B8A65D"/>
<path d="M450.484 228.891L447.307 228.156L450.161 225.073L446.74 227.51L446.542 224.964L445.88 227.458L442.797 224.604L445.234 228.026L441.875 228.141L445.182 228.885L442.328 231.969L445.75 229.531L446.151 232.068L446.609 229.589L449.693 232.437L447.255 229.016L450.484 228.891Z" fill="#B8A65D"/>
<path d="M484.979 225.26L480.213 224.161L484.495 219.536L479.365 223.193L479.062 219.365L478.073 223.109L473.448 218.833L477.104 223.964L472.068 224.135L477.021 225.25L472.745 229.875L477.875 226.219L478.479 230.026L479.167 226.302L483.792 230.578L480.135 225.448L484.979 225.26Z" fill="#B8A65D"/>
<path d="M127.792 408.755L138.844 411.307L128.922 422.036L140.823 413.557L141.516 422.432L143.807 413.745L154.536 423.667L146.057 411.766L157.745 411.365L146.25 408.776L156.172 398.047L144.271 406.531L142.87 397.703L141.281 406.339L130.552 396.417L139.031 408.318L127.792 408.755Z" fill="#B8A65D"/>
<path d="M96.974 430.932L102.5 432.203L97.5365 437.568L103.49 433.328L103.833 437.766L104.984 433.422L110.349 438.385L106.104 432.438L111.948 432.234L106.203 430.943L111.161 425.578L105.214 429.818L104.516 425.406L103.719 429.719L98.3542 424.76L102.594 430.708L96.974 430.932Z" fill="#B8A65D"/>
<path d="M169.281 433.177L174.807 434.453L169.844 439.818L175.797 435.578L176.141 440.016L177.292 435.672L182.656 440.635L178.417 434.682L184.26 434.484L178.51 433.188L183.469 427.823L177.521 432.063L176.823 427.651L176.026 431.969L170.661 427.01L174.901 432.958L169.281 433.177Z" fill="#B8A65D"/>
<path d="M123.12 452.109L131.406 454.021L123.969 462.068L132.891 455.708L133.411 462.365L135.135 455.849L143.182 463.292L136.823 454.365L145.589 454.063L136.964 452.125L144.406 444.078L135.479 450.438L134.432 443.818L133.24 450.292L125.193 442.854L131.552 451.776L123.12 452.109Z" fill="#B8A65D"/>
<path d="M70.6927 343.193L69.5677 331.911L57.6666 340.391L67.5885 329.661L58.8698 327.849L67.7812 326.672L59.2968 314.771L70.026 324.693L71.9062 313.151L73.0156 324.885L84.9166 316.401L74.9948 327.13L83.5729 329.635L74.802 330.12L83.2864 342.021L72.5573 332.099L70.6927 343.193Z" fill="#B8A65D"/>
<path d="M44.7916 370.948L44.2291 365.307L38.276 369.547L43.2395 364.182L38.8802 363.276L43.3333 362.693L39.0937 356.74L44.4583 361.703L45.3958 355.927L45.9531 361.797L51.901 357.557L46.9427 362.922L51.2291 364.172L46.8489 364.417L51.0885 370.365L45.7239 365.406L44.7916 370.948Z" fill="#B8A65D"/>
<path d="M51.7344 298.943L51.1719 293.302L45.2188 297.542L50.1823 292.177L45.8229 291.271L50.276 290.682L46.0365 284.729L51.401 289.693L52.3385 283.922L52.8958 289.786L58.8438 285.547L53.8854 290.911L58.1719 292.161L53.7865 292.406L58.026 298.354L52.6615 293.396L51.7344 298.943Z" fill="#B8A65D"/>
<path d="M27.1042 342.328L26.2552 333.865L17.3334 340.224L24.7709 332.177L18.2344 330.818L24.9167 329.938L18.5573 321.01L26.599 328.453L28.0105 319.797L28.8438 328.594L37.7657 322.234L30.3282 330.281L36.7605 332.161L30.1823 332.521L36.5469 341.448L28.5 334.005L27.1042 342.328Z" fill="#B8A65D"/>
<path d="M21.1459 234.974L24.5834 235.766L21.4948 239.104L25.198 236.464L25.4167 239.229L26.1302 236.526L29.4688 239.609L26.8282 235.911L30.4636 235.786L26.8855 234.979L29.974 231.641L26.2709 234.281L25.8386 231.536L25.3438 234.219L22.0052 231.135L24.6407 234.839L21.1459 234.974Z" fill="#B8A65D"/>
<path d="M17.1406 290.391L20.3177 291.12L17.4635 294.203L20.8854 291.766L21.0833 294.318L21.7448 291.823L24.8281 294.672L22.3906 291.255L25.75 291.141L22.4479 290.396L25.2969 287.313L21.875 289.75L21.474 287.214L21.0156 289.693L17.9323 286.844L20.3698 290.26L17.1406 290.391Z" fill="#B8A65D"/>
<path d="M43.6146 260.135L46.7917 260.865L43.9427 263.948L47.3594 261.51L47.5625 264.063L48.2188 261.568L51.3021 264.417L48.8646 261L52.224 260.885L48.9219 260.141L51.7709 257.057L48.3542 259.495L47.9532 256.958L47.4948 259.438L44.4115 256.589L46.849 260.005L43.6146 260.135Z" fill="#B8A65D"/>
<path d="M9.125 263.766L13.8854 264.865L9.60937 269.49L14.7396 265.833L15.0365 269.662L16.026 265.917L20.651 270.193L16.9948 265.063L22.0365 264.891L17.0781 263.776L21.3542 259.151L16.224 262.807L15.625 259L14.9375 262.724L10.3125 258.448L13.9687 263.578L9.125 263.766Z" fill="#B8A65D"/>
<path d="M224.578 476.271L224.229 472.76L220.526 475.396L223.615 472.063L220.901 471.495L223.672 471.13L221.031 467.427L224.37 470.516L224.958 466.922L225.302 470.573L229.005 467.938L225.917 471.271L228.583 472.052L225.859 472.203L228.495 475.906L225.156 472.818L224.578 476.271Z" fill="#B8A65D"/>
<path d="M169.104 473.214L168.781 469.969L165.359 472.406L168.208 469.323L165.703 468.802L168.266 468.464L165.828 465.047L168.911 467.896L169.453 464.578L169.771 467.953L173.193 465.516L170.339 468.599L172.802 469.318L170.286 469.458L172.719 472.875L169.635 470.026L169.104 473.214Z" fill="#B8A65D"/>
<path d="M202.474 450.786L202.146 447.547L198.729 449.984L201.578 446.901L199.073 446.38L201.635 446.042L199.198 442.62L202.281 445.474L202.823 442.156L203.141 445.526L206.557 443.089L203.708 446.172L206.172 446.891L203.651 447.031L206.089 450.453L203.005 447.599L202.474 450.786Z" fill="#B8A65D"/>
<mask id="mask4_2938_11070" style="mask-type:luminance" maskUnits="userSpaceOnUse" x="188" y="470" width="14" height="15">
<path d="M188 470.667H201.333V484.464H188V470.667Z" fill="white"/>
</mask>
<g mask="url(#mask4_2938_11070)">
<path d="M194.495 484.542L194.01 479.682L188.88 483.333L193.156 478.708L189.396 477.927L193.24 477.422L189.583 472.292L194.208 476.568L195.016 471.594L195.495 476.651L200.625 472.995L196.349 477.62L200.047 478.698L196.266 478.906L199.922 484.036L195.297 479.76L194.495 484.542Z" fill="#B8A65D"/>
</g>
<path d="M99.1912 357.25C95.4256 357.25 92.0037 356.552 88.9204 355.166C85.8371 353.791 83.1756 351.89 80.9412 349.458C78.7017 347.015 76.9829 344.239 75.7746 341.125C74.5767 338 73.9829 334.698 73.9829 331.208C73.9829 328.015 74.4621 324.87 75.4204 321.771C76.3787 318.661 77.8371 315.833 79.7954 313.291C81.7537 310.75 84.2381 308.724 87.2537 307.208C90.2798 305.698 93.8579 304.937 97.9829 304.937C102.259 304.937 105.972 305.666 109.129 307.125C112.295 308.583 114.9 310.536 116.941 312.979C118.983 315.411 120.504 318.166 121.504 321.25C122.504 324.333 123.004 327.495 123.004 330.729C123.004 334.604 122.42 338.166 121.254 341.416C120.097 344.656 118.462 347.469 116.337 349.854C114.222 352.229 111.702 354.052 108.775 355.333C105.858 356.609 102.66 357.25 99.1912 357.25ZM99.1912 347.229C101.577 347.229 103.795 346.64 105.837 345.458C107.879 344.281 109.514 342.432 110.754 339.916C112.004 337.39 112.629 334.104 112.629 330.062C112.629 326.594 111.946 323.739 110.587 321.5C109.222 319.25 107.462 317.594 105.295 316.521C103.139 315.437 100.884 314.896 98.5246 314.896C95.8423 314.896 93.5767 315.375 91.7329 316.333C89.8996 317.291 88.4204 318.583 87.2954 320.208C86.1808 321.823 85.384 323.625 84.8996 325.625C84.4256 327.625 84.1912 329.687 84.1912 331.812C84.1912 333.896 84.5871 335.87 85.3787 337.729C86.1808 339.578 87.2746 341.219 88.6496 342.646C90.035 344.062 91.6287 345.182 93.4204 346C95.2225 346.823 97.1496 347.229 99.1912 347.229Z" fill="#F8F8F2"/>
<path d="M146.524 358.208C143.8 358.208 141.279 357.885 138.961 357.25C136.638 356.609 134.534 355.791 132.649 354.791C130.774 353.791 129.097 352.729 127.628 351.604L133.024 342.916C134.701 344.474 136.321 345.677 137.878 346.521C139.446 347.354 141.076 347.932 142.774 348.25C144.466 348.573 146.315 348.729 148.315 348.729C150.034 348.729 151.419 348.5 152.461 348.041C153.503 347.583 154.024 346.995 154.024 346.271C154.024 345.677 153.524 345.208 152.524 344.875C151.524 344.531 150.237 344.224 148.669 343.958C147.112 343.698 145.472 343.37 143.753 342.979C141.321 342.328 139.044 341.583 136.919 340.75C134.805 339.906 133.097 338.765 131.794 337.333C130.487 335.89 129.836 333.969 129.836 331.562C129.836 329.646 130.294 327.958 131.211 326.5C132.138 325.041 133.378 323.828 134.919 322.854C136.461 321.87 138.211 321.14 140.169 320.666C142.128 320.182 144.149 319.937 146.232 319.937C149.826 319.937 152.93 320.37 155.544 321.229C158.169 322.078 160.68 323.203 163.086 324.604L157.628 332.896C156.419 332.052 155.044 331.323 153.503 330.708C151.972 330.083 150.44 329.604 148.899 329.271C147.357 328.927 145.925 328.75 144.607 328.75C143.159 328.75 142.029 328.974 141.211 329.416C140.388 329.849 139.982 330.469 139.982 331.271C139.982 331.745 140.487 332.198 141.503 332.625C142.529 333.041 144.482 333.594 147.357 334.271C149.076 334.677 150.899 335.083 152.815 335.5C154.742 335.916 156.555 336.5 158.253 337.25C159.946 337.989 161.321 339.041 162.378 340.416C163.446 341.791 163.982 343.625 163.982 345.916C163.982 349.75 162.44 352.76 159.357 354.937C156.284 357.114 152.008 358.208 146.524 358.208Z" fill="#F8F8F2"/>
<path d="M186.723 358.021C182.889 358.021 179.52 357.271 176.619 355.771C173.712 354.271 171.452 352.182 169.827 349.5C168.212 346.823 167.41 343.724 167.41 340.208C167.41 338.083 167.764 335.854 168.473 333.521C169.192 331.177 170.353 328.989 171.952 326.958C173.561 324.916 175.671 323.26 178.285 321.979C180.91 320.687 184.103 320.041 187.869 320.041C190.587 320.041 192.874 320.349 194.723 320.958C196.582 321.557 198.103 322.333 199.285 323.291C200.462 324.25 201.369 325.271 201.994 326.354C202.619 327.437 203.035 328.474 203.244 329.458C203.462 330.432 203.577 331.239 203.577 331.875C203.577 335.75 201.942 338.739 198.681 340.833C195.431 342.932 190.827 343.979 184.869 343.979C183.504 343.979 182.212 343.927 180.994 343.812C179.77 343.687 178.639 343.552 177.598 343.396C178.358 345.396 179.619 346.87 181.369 347.812C183.129 348.745 184.957 349.208 186.848 349.208C189.567 349.208 191.962 348.724 194.035 347.75C196.119 346.765 198.082 345.25 199.931 343.208L205.264 350.896C203.983 351.937 202.556 353.015 200.973 354.125C199.389 355.25 197.457 356.177 195.181 356.916C192.9 357.651 190.082 358.021 186.723 358.021ZM188.035 329.041C185.671 329.041 183.587 329.646 181.785 330.854C179.994 332.052 178.681 333.625 177.848 335.583C178.848 335.75 179.832 335.885 180.806 335.979C181.79 336.078 182.764 336.125 183.723 336.125C184.598 336.125 185.603 336.052 186.744 335.896C187.895 335.729 189.02 335.489 190.119 335.166C191.212 334.849 192.124 334.437 192.848 333.937C193.567 333.437 193.931 332.849 193.931 332.166C193.931 331.849 193.77 331.453 193.452 330.979C193.129 330.495 192.546 330.052 191.702 329.646C190.869 329.245 189.645 329.041 188.035 329.041Z" fill="#F8F8F2"/>
<path d="M211.253 357.979L209.753 350.104C210.279 349.911 210.904 349.729 211.628 349.562C212.862 348.771 214.284 347.708 215.899 346.375C217.524 345.031 219.195 343.557 220.919 341.958C222.638 340.349 224.3 338.76 225.899 337.187C227.492 335.604 228.888 334.177 230.086 332.896C231.294 331.62 232.18 330.62 232.753 329.896C232.945 329.62 233.076 329.411 233.149 329.271C233.232 329.12 233.274 329.021 233.274 328.979C233.274 329.021 232.992 329.041 232.44 329.041C231.883 329.041 231.383 329.041 230.94 329.041C229.492 329.041 227.742 329.156 225.69 329.375C223.633 329.599 221.425 329.932 219.065 330.375C216.701 330.807 214.341 331.406 211.982 332.166L210.19 322.5C214.3 321.708 218.221 321.104 221.961 320.687C225.711 320.26 229.242 320.041 232.565 320.041C233.841 320.041 235.211 320.083 236.669 320.166C238.128 320.25 239.513 320.489 240.836 320.875C242.154 321.25 243.232 321.87 244.065 322.729C244.909 323.578 245.336 324.765 245.336 326.291C245.336 327.375 244.883 328.708 243.982 330.291C243.091 331.864 241.836 333.599 240.211 335.5C238.586 337.406 236.701 339.396 234.565 341.479C232.425 343.552 230.117 345.625 227.649 347.708C229.841 347.583 232.024 347.521 234.19 347.521C237.258 347.521 239.971 347.583 242.336 347.708C244.695 347.833 246.258 347.995 247.024 348.187L247.086 357.541C245.961 357.469 244.154 357.401 241.669 357.333C239.195 357.276 236.461 357.25 233.461 357.25C230.654 357.25 227.8 357.276 224.899 357.333C222.008 357.401 219.346 357.484 216.919 357.583C214.503 357.677 212.612 357.812 211.253 357.979Z" fill="#F8F8F2"/>
<path d="M267.895 357.604C267.895 351.37 267.984 345.745 268.166 340.729C268.343 335.703 268.583 331.12 268.874 326.979C269.177 322.844 269.52 318.979 269.895 315.396C270.281 311.812 270.656 308.385 271.02 305.104L281.333 305.521C281.177 306.771 281.005 308.114 280.812 309.541C282.156 311.39 283.645 313.495 285.27 315.854C286.895 318.219 288.552 320.708 290.249 323.333C291.958 325.948 293.63 328.562 295.27 331.187C296.906 333.802 298.463 336.302 299.937 338.687C301.421 341.062 302.718 343.187 303.833 345.062C304.124 342.312 304.27 338.437 304.27 333.437C304.27 330.87 304.229 328.229 304.145 325.521C304.062 322.802 303.958 320.187 303.833 317.687C303.718 315.187 303.562 312.948 303.354 310.958C303.156 308.974 302.942 307.427 302.708 306.312L313.979 304.937C314.062 306.896 314.109 309.469 314.124 312.646C314.15 315.828 314.166 319.198 314.166 322.75C314.166 325.906 314.145 329.073 314.104 332.25C314.062 335.432 313.979 338.364 313.854 341.041C313.739 343.724 313.567 345.948 313.333 347.708C312.885 351.156 312.005 353.692 310.687 355.333C309.364 356.969 307.505 357.791 305.104 357.791C303.145 357.791 301.354 357.109 299.729 355.75C298.114 354.385 296.364 352.146 294.479 349.021C293.197 346.87 291.708 344.385 289.999 341.562C288.302 338.745 286.546 335.854 284.729 332.896C282.906 329.937 281.156 327.12 279.479 324.437C279.156 329.12 278.916 333.791 278.749 338.458C278.593 343.114 278.52 347.312 278.52 351.062C278.52 352.271 278.52 353.401 278.52 354.458C278.52 355.51 278.541 356.505 278.583 357.437L267.895 357.604Z" fill="#F8F8F2"/>
<path d="M339.191 358.146C335.983 358.146 333.181 357.625 330.795 356.583C328.42 355.541 326.451 354.109 324.899 352.291C323.342 350.474 322.181 348.385 321.42 346.021C320.655 343.661 320.274 341.182 320.274 338.583C320.274 335.948 320.743 333.5 321.691 331.25C322.634 328.989 323.931 327.015 325.587 325.333C327.253 323.656 329.201 322.344 331.441 321.396C333.675 320.453 336.113 319.979 338.753 319.979C341.514 319.979 344.076 320.469 346.441 321.437C348.8 322.396 350.858 323.739 352.608 325.458C354.368 327.166 355.743 329.182 356.733 331.5C357.717 333.823 358.212 336.344 358.212 339.062C358.212 345.104 356.545 349.802 353.212 353.146C349.889 356.479 345.217 358.146 339.191 358.146ZM339.128 348.437C342.045 348.437 344.274 347.62 345.816 345.979C347.358 344.328 348.128 341.969 348.128 338.896C348.128 336.135 347.285 333.911 345.608 332.229C343.925 330.552 341.722 329.708 339.003 329.708C337.363 329.708 335.863 330.14 334.503 331C333.139 331.864 332.05 333 331.233 334.416C330.41 335.833 330.003 337.406 330.003 339.125C330.003 340.656 330.306 342.14 330.92 343.583C331.545 345.015 332.535 346.182 333.899 347.083C335.259 347.989 337.003 348.437 339.128 348.437Z" fill="#F8F8F2"/>
<path d="M381.003 358.021C377.169 358.021 373.799 357.271 370.898 355.771C367.992 354.271 365.732 352.182 364.107 349.5C362.492 346.823 361.69 343.724 361.69 340.208C361.69 338.083 362.044 335.854 362.753 333.521C363.471 331.177 364.633 328.989 366.232 326.958C367.841 324.917 369.95 323.26 372.565 321.979C375.19 320.687 378.383 320.042 382.148 320.042C384.867 320.042 387.154 320.349 389.003 320.958C390.862 321.557 392.383 322.333 393.565 323.292C394.742 324.25 395.648 325.271 396.273 326.354C396.898 327.437 397.315 328.474 397.523 329.458C397.742 330.432 397.857 331.239 397.857 331.875C397.857 335.75 396.221 338.739 392.961 340.833C389.711 342.932 385.107 343.979 379.148 343.979C377.784 343.979 376.492 343.927 375.273 343.812C374.049 343.687 372.919 343.552 371.878 343.396C372.638 345.396 373.898 346.87 375.648 347.812C377.409 348.745 379.237 349.208 381.128 349.208C383.846 349.208 386.242 348.724 388.315 347.75C390.398 346.765 392.362 345.25 394.211 343.208L399.544 350.896C398.263 351.937 396.836 353.015 395.253 354.125C393.669 355.25 391.737 356.177 389.461 356.917C387.18 357.651 384.362 358.021 381.003 358.021ZM382.315 329.042C379.95 329.042 377.867 329.646 376.065 330.854C374.273 332.052 372.961 333.625 372.128 335.583C373.128 335.75 374.112 335.885 375.086 335.979C376.07 336.078 377.044 336.125 378.003 336.125C378.878 336.125 379.883 336.052 381.023 335.896C382.174 335.729 383.299 335.489 384.398 335.167C385.492 334.849 386.404 334.437 387.128 333.937C387.846 333.437 388.211 332.849 388.211 332.167C388.211 331.849 388.049 331.453 387.732 330.979C387.409 330.495 386.825 330.052 385.982 329.646C385.148 329.245 383.924 329.042 382.315 329.042ZM387.044 314C385.711 314 384.638 313.573 383.836 312.708C383.044 311.849 382.648 310.729 382.648 309.354C382.648 308.104 383.008 307.12 383.732 306.396C384.466 305.661 385.513 305.292 386.878 305.292C387.346 305.292 387.945 305.39 388.669 305.583C389.404 305.781 390.049 306.187 390.607 306.812C391.174 307.437 391.461 308.396 391.461 309.687C391.461 310.677 391.128 311.64 390.461 312.583C389.794 313.531 388.654 314 387.044 314ZM374.232 314.292C373.174 314.292 372.195 313.932 371.294 313.208C370.388 312.489 369.94 311.333 369.94 309.75C369.94 308.39 370.346 307.396 371.169 306.771C372.003 306.135 372.966 305.812 374.065 305.812C375.674 305.812 376.82 306.239 377.503 307.083C378.18 307.932 378.523 308.948 378.523 310.125C378.523 311.489 378.07 312.521 377.169 313.229C376.263 313.937 375.284 314.292 374.232 314.292Z" fill="#F8F8F2"/>
<path d="M415.866 357.979C413.658 357.979 411.845 357.505 410.428 356.562C409.012 355.614 407.892 354.323 407.074 352.687C406.251 351.052 405.647 349.177 405.262 347.062C404.887 344.937 404.647 342.666 404.553 340.25C404.454 337.823 404.408 335.39 404.408 332.958C404.408 330.833 404.46 328.5 404.574 325.958C404.699 323.416 404.85 320.844 405.033 318.229C405.21 315.604 405.413 313.135 405.637 310.812C405.856 308.495 406.064 306.474 406.262 304.75L417.116 304.875C416.793 306.916 416.496 309.229 416.22 311.812C415.939 314.385 415.71 316.989 415.533 319.625C415.35 322.265 415.21 324.708 415.116 326.958C415.017 329.198 414.97 330.974 414.97 332.291C414.97 335.932 415.038 338.791 415.178 340.875C415.314 342.948 415.533 344.411 415.824 345.271C416.126 346.135 416.538 346.562 417.053 346.562C417.731 346.562 418.475 346.135 419.283 345.271C420.085 344.411 420.866 343.448 421.616 342.375L426.72 352.5C425.481 353.859 424.001 355.109 422.283 356.25C420.559 357.401 418.418 357.979 415.866 357.979Z" fill="#F8F8F2"/>
</svg>
