<svg width="350" height="350" viewBox="0 0 350 350" fill="none" xmlns="http://www.w3.org/2000/svg">
<mask id="mask0_2941_11162" style="mask-type:luminance" maskUnits="userSpaceOnUse" x="137" y="141" width="85" height="82">
<path d="M137.098 141.867H221.798V222.009H137.098V141.867Z" fill="white"/>
</mask>
<g mask="url(#mask0_2941_11162)">
<path d="M177.031 142.446C176.809 143.533 176.477 144.576 176.094 145.607C175.711 146.639 175.27 147.649 174.774 148.633C173.779 150.598 172.594 152.48 171.209 154.208C170.516 155.072 169.783 155.907 169.01 156.702C168.226 157.485 167.413 158.247 166.557 158.958C165.7 159.666 164.814 160.34 163.881 160.953L163.213 161.405C163.115 161.474 163.02 161.547 162.94 161.616C162.86 161.682 162.787 161.755 162.754 161.795C162.739 161.813 162.739 161.831 162.761 161.791C162.769 161.773 162.787 161.736 162.798 161.667C162.812 161.602 162.812 161.492 162.776 161.386C162.739 161.277 162.674 161.193 162.626 161.149C162.579 161.102 162.546 161.084 162.524 161.073C162.488 161.055 162.499 161.058 162.521 161.062C162.572 161.069 162.67 161.073 162.772 161.073C162.878 161.069 162.991 161.062 163.108 161.047C163.224 161.036 163.348 161.018 163.469 161L163.855 160.938L164.679 160.81C165.229 160.727 165.78 160.668 166.331 160.595C166.877 160.544 167.428 160.482 167.978 160.439C168.529 160.398 169.079 160.347 169.63 160.322C171.828 160.191 174.031 160.14 176.229 160.154C178.427 160.172 180.626 160.253 182.821 160.398L184.469 160.522L186.116 160.676L187.761 160.858L189.42 161.077C189.912 161.149 190.462 161.419 190.827 161.849C191.199 162.28 191.385 162.816 191.399 163.344C191.414 163.873 191.253 164.427 190.893 164.879C190.718 165.102 190.491 165.295 190.247 165.437C190.127 165.506 189.999 165.565 189.875 165.608C189.813 165.634 189.748 165.656 189.686 165.67L189.514 165.714L187.943 166.075C187.681 166.137 187.418 166.192 187.156 166.257L186.375 166.458C184.286 166.972 182.223 167.595 180.166 168.23L178.635 168.736L177.866 168.992L177.108 169.261L175.584 169.805L174.074 170.377C173.064 170.753 172.073 171.172 171.074 171.569C170.574 171.777 170.082 171.992 169.586 172.204C169.094 172.419 168.595 172.623 168.11 172.853C164.187 174.628 160.344 176.586 156.665 178.806C156.206 179.083 155.747 179.357 155.291 179.641L153.935 180.505L153.351 180.877C153.329 180.899 153.344 180.881 153.34 180.873C153.34 180.863 153.337 180.881 153.34 180.903C153.348 180.928 153.362 180.946 153.359 180.943L158.853 180.265C163.191 179.769 167.541 179.317 171.905 179.003C176.269 178.69 180.648 178.474 185.034 178.489C187.228 178.5 189.427 178.569 191.625 178.759C192.726 178.865 193.824 178.978 194.918 179.171C195.195 179.211 195.464 179.273 195.738 179.324L196.15 179.404C196.179 179.411 196.226 179.422 196.274 179.433C196.318 179.448 196.361 179.455 196.409 179.473C196.496 179.499 196.584 179.535 196.671 179.576C197.018 179.743 197.324 180.02 197.513 180.352C197.71 180.684 197.805 181.063 197.794 181.435C197.787 181.807 197.685 182.182 197.473 182.503C197.269 182.824 196.959 183.083 196.616 183.229C196.533 183.269 196.445 183.294 196.361 183.323L196.161 183.382L195.767 183.491L194.979 183.717L191.837 184.61C189.74 185.205 187.651 185.817 185.559 186.43C181.381 187.658 177.213 188.927 173.064 190.247C170.99 190.907 168.923 191.581 166.856 192.27C164.792 192.963 162.739 193.678 160.687 194.407C156.589 195.861 152.52 197.411 148.557 199.154L147.077 199.824L146.344 200.171L145.979 200.342L145.808 200.426C145.783 200.441 145.764 200.452 145.75 200.466C145.695 200.514 145.681 200.554 145.681 200.634C145.681 200.71 145.732 200.798 145.775 200.831C145.801 200.849 145.819 200.856 145.845 200.864C145.859 200.864 145.874 200.867 145.892 200.867C145.903 200.864 145.91 200.867 145.921 200.864L145.976 200.856L146.785 200.747C148.947 200.455 151.109 200.174 153.275 199.901C157.602 199.351 161.941 198.847 166.283 198.399C168.456 198.177 170.629 197.961 172.809 197.776C174.986 197.593 177.166 197.426 179.35 197.287C183.714 196.999 188.096 196.835 192.5 196.864C194.702 196.882 196.908 196.955 199.128 197.145C200.24 197.243 201.352 197.367 202.472 197.546C203.595 197.728 204.718 197.951 205.855 198.304L206.296 198.45C206.643 198.57 207.003 198.807 207.259 199.139C207.518 199.467 207.667 199.865 207.703 200.247C207.74 200.634 207.678 201.02 207.51 201.381C207.346 201.742 207.062 202.074 206.712 202.293C206.54 202.398 206.354 202.482 206.172 202.537C206.092 202.559 205.957 202.588 205.95 202.588L205.851 202.61L205.046 202.774L201.834 203.412L195.428 204.688C191.162 205.541 186.904 206.427 182.66 207.353C178.413 208.29 174.176 209.238 169.958 210.262C167.847 210.769 165.74 211.291 163.64 211.83C161.54 212.377 159.444 212.928 157.358 213.511C155.269 214.087 153.195 214.692 151.127 215.33C149.06 215.961 147.008 216.632 144.973 217.335L143.453 217.879C142.946 218.061 142.447 218.254 141.944 218.444L141.222 218.717C141.072 218.779 140.908 218.867 140.751 218.969C140.595 219.071 140.449 219.191 140.332 219.304C140.215 219.41 140.132 219.534 140.128 219.545C140.124 219.548 140.15 219.512 140.161 219.384C140.168 219.319 140.161 219.231 140.139 219.133C140.117 219.038 140.077 218.932 140.022 218.856C139.92 218.695 139.822 218.644 139.803 218.633C139.774 218.619 139.803 218.633 139.851 218.648C139.957 218.681 140.139 218.71 140.343 218.724C140.551 218.739 140.777 218.743 141.014 218.735C141.962 218.703 142.997 218.546 144.022 218.356C144.536 218.258 145.053 218.148 145.571 218.032C146.092 217.915 146.592 217.787 147.139 217.66C148.214 217.405 149.286 217.16 150.365 216.934C152.516 216.479 154.675 216.074 156.837 215.702C158.999 215.33 161.168 214.998 163.337 214.707C165.51 214.411 167.683 214.145 169.86 213.912C172.036 213.675 174.216 213.467 176.397 213.289C178.581 213.117 180.764 212.979 182.952 212.869C187.323 212.647 191.702 212.552 196.081 212.643C200.456 212.72 204.834 212.986 209.184 213.533C211.357 213.806 213.522 214.167 215.662 214.63C216.734 214.86 217.795 215.13 218.849 215.432C219.902 215.735 220.945 216.074 221.966 216.468L221.868 216.748C219.797 216.103 217.671 215.647 215.535 215.294C214.466 215.119 213.391 214.969 212.315 214.845C211.24 214.725 210.161 214.619 209.082 214.532C206.92 214.36 204.754 214.255 202.585 214.211C200.415 214.164 198.246 214.16 196.081 214.204C193.911 214.244 191.742 214.331 189.576 214.448C187.411 214.557 185.245 214.707 183.083 214.885C180.921 215.06 178.763 215.272 176.608 215.509C174.45 215.742 172.299 216.001 170.148 216.289C165.849 216.861 161.573 217.565 157.318 218.364C155.192 218.768 153.074 219.206 150.974 219.691C149.921 219.931 148.874 220.19 147.835 220.456C147.325 220.591 146.767 220.733 146.227 220.861C145.684 220.989 145.137 221.112 144.583 221.222C143.467 221.441 142.348 221.634 141.116 221.692C140.81 221.703 140.492 221.707 140.153 221.685C139.814 221.663 139.453 221.623 139.034 221.51C138.823 221.448 138.589 221.368 138.327 221.222C138.072 221.076 137.758 220.846 137.507 220.46C137.248 220.073 137.142 219.541 137.182 219.151C137.215 218.75 137.332 218.451 137.448 218.21C137.692 217.736 137.962 217.434 138.232 217.164C138.506 216.894 138.786 216.672 139.085 216.471C139.384 216.271 139.698 216.096 140.048 215.946L140.175 215.892L140.274 215.855L140.467 215.779L140.85 215.629C141.364 215.429 141.878 215.221 142.396 215.028L143.945 214.455C148.087 212.953 152.283 211.644 156.498 210.448C164.931 208.057 173.454 206.077 182.008 204.298C186.284 203.408 190.568 202.566 194.856 201.753L201.29 200.557L204.499 199.963L205.294 199.814C205.534 199.766 205.294 199.806 205.202 199.879C205.086 199.956 204.987 200.069 204.936 200.182C204.885 200.298 204.871 200.408 204.882 200.521C204.893 200.638 204.94 200.765 205.027 200.882C205.119 200.995 205.246 201.075 205.334 201.104L204.998 200.991C204.061 200.685 203.048 200.466 202.02 200.288C200.988 200.109 199.938 199.974 198.881 199.872C196.759 199.664 194.611 199.562 192.457 199.507C188.147 199.402 183.809 199.518 179.474 199.682C170.804 200.058 162.123 200.71 153.457 201.545C151.291 201.753 149.126 201.976 146.96 202.202L146.151 202.289C146.125 202.289 146.052 202.296 146.001 202.3C145.947 202.304 145.885 202.3 145.826 202.3C145.71 202.293 145.589 202.274 145.473 202.242C145.236 202.172 145.006 202.048 144.831 201.884C144.47 201.549 144.284 201.097 144.291 200.627C144.291 200.393 144.346 200.153 144.456 199.934C144.565 199.711 144.729 199.522 144.919 199.38C145.01 199.31 145.108 199.252 145.207 199.205L145.403 199.117L145.779 198.949L146.534 198.61L148.047 197.969C150.074 197.13 152.115 196.35 154.168 195.603C156.224 194.855 158.281 194.126 160.348 193.426C168.616 190.63 176.951 188.063 185.293 185.536L191.552 183.641L194.681 182.696L195.851 182.335L196.04 182.277C196.084 182.263 196.128 182.248 196.164 182.226C196.478 182.084 196.66 181.774 196.657 181.424C196.657 181.253 196.606 181.081 196.522 180.946C196.438 180.808 196.318 180.709 196.172 180.644C196.135 180.626 196.095 180.611 196.055 180.6C196.037 180.593 196.011 180.589 195.993 180.585C195.971 180.582 195.953 180.574 195.916 180.571L195.523 180.505C195.26 180.461 194.998 180.414 194.732 180.381C193.674 180.232 192.602 180.152 191.531 180.086C189.379 179.973 187.218 179.962 185.056 180.035C180.732 180.181 176.404 180.556 172.091 181.03C167.778 181.515 163.469 182.069 159.166 182.7L155.94 183.167L154.328 183.407L153.924 183.466L153.709 183.498C153.585 183.513 153.457 183.524 153.326 183.52C152.808 183.52 152.236 183.345 151.802 183.014C151.364 182.685 151.051 182.237 150.879 181.745C150.708 181.256 150.675 180.706 150.821 180.17C150.963 179.638 151.302 179.153 151.707 178.828C151.948 178.642 152.017 178.613 152.141 178.526L152.487 178.299L153.876 177.392C154.343 177.096 154.817 176.812 155.287 176.524C156.224 175.933 157.19 175.401 158.142 174.843C158.623 174.573 159.112 174.318 159.597 174.052C160.082 173.79 160.566 173.523 161.059 173.276L162.532 172.524C163.024 172.269 163.523 172.043 164.019 171.803C165.011 171.318 166.017 170.869 167.023 170.421C171.052 168.627 175.194 167.103 179.404 165.794C181.515 165.16 183.637 164.558 185.788 164.063L186.594 163.869C186.86 163.807 187.134 163.753 187.403 163.694L189.022 163.352C189.088 163.333 189.029 163.352 189.022 163.377C189.004 163.406 189.015 163.406 189.019 163.392C189.022 163.377 189.015 163.37 189.033 163.384C189.044 163.399 189.081 163.403 189.037 163.388L187.462 163.151L185.861 162.94L184.257 162.761L182.649 162.608C180.502 162.415 178.344 162.287 176.189 162.218C174.031 162.152 171.869 162.138 169.717 162.207C168.642 162.243 167.566 162.302 166.498 162.378C165.966 162.429 165.43 162.466 164.901 162.531L164.107 162.626L163.68 162.673C163.534 162.688 163.385 162.703 163.228 162.71C163.075 162.717 162.918 162.721 162.75 162.714C162.579 162.706 162.404 162.695 162.189 162.648C162.076 162.619 161.956 162.59 161.799 162.506C161.719 162.466 161.627 162.411 161.529 162.316C161.431 162.225 161.325 162.083 161.266 161.911C161.208 161.74 161.204 161.561 161.226 161.43C161.248 161.292 161.288 161.193 161.328 161.113C161.409 160.949 161.489 160.854 161.562 160.77C161.711 160.606 161.846 160.501 161.977 160.398C162.112 160.3 162.24 160.213 162.371 160.132L163.075 159.698C163.986 159.148 164.854 158.532 165.711 157.894C166.564 157.252 167.373 156.556 168.164 155.834C168.945 155.105 169.688 154.332 170.396 153.53C171.81 151.918 173.072 150.165 174.144 148.294C174.679 147.361 175.179 146.402 175.616 145.414C175.835 144.922 176.043 144.422 176.233 143.916C176.419 143.409 176.601 142.895 176.739 142.381L177.031 142.446Z" fill="#5C8D47"/>
</g>
<mask id="mask1_2941_11162" style="mask-type:luminance" maskUnits="userSpaceOnUse" x="170" y="138" width="12" height="10">
<path d="M170.8 138.709H181.066V147.467H170.8V138.709Z" fill="white"/>
</mask>
<g mask="url(#mask1_2941_11162)">
<path d="M178.755 146.843L176.05 144.962L173.428 146.953L174.38 143.803L171.678 141.921L174.97 141.856L175.922 138.706L177.005 141.812L180.293 141.743L177.672 143.733L178.755 146.843Z" fill="#5C8D47"/>
</g>
<mask id="mask2_2941_11162" style="mask-type:luminance" maskUnits="userSpaceOnUse" x="86" y="81" width="178" height="187">
<path d="M86.6689 81.7687H263.069V267.969H86.6689V81.7687Z" fill="white"/>
</mask>
<g mask="url(#mask2_2941_11162)">
<path d="M139.089 167.643C139.639 167.621 140.164 167.737 140.642 167.974C141.119 168.204 141.553 168.551 141.914 168.984C142.279 169.418 142.578 169.943 142.778 170.53C142.982 171.117 143.096 171.762 143.096 172.444C143.096 173.024 143.015 173.578 142.866 174.096C142.72 174.614 142.505 175.095 142.235 175.514C141.965 175.941 141.641 176.309 141.284 176.608C140.919 176.903 140.518 177.136 140.091 177.279V187.461C140.518 187.604 140.919 187.833 141.284 188.132C141.641 188.428 141.965 188.799 142.235 189.219C142.505 189.642 142.72 190.119 142.866 190.633C143.015 191.147 143.096 191.702 143.096 192.278C143.096 192.963 142.982 193.612 142.778 194.199C142.578 194.782 142.279 195.307 141.914 195.741C141.553 196.171 141.119 196.518 140.642 196.751C140.164 196.981 139.639 197.097 139.089 197.076C138.542 197.054 138.021 196.901 137.55 196.634C137.076 196.372 136.657 196 136.303 195.548C135.95 195.096 135.665 194.564 135.468 193.977C135.275 193.39 135.162 192.748 135.162 192.077C135.162 191.512 135.239 190.972 135.385 190.477C135.527 189.977 135.735 189.518 135.993 189.109C136.256 188.705 136.566 188.351 136.923 188.067C137.277 187.782 137.671 187.567 138.09 187.436V177.304C137.671 177.173 137.277 176.958 136.923 176.673C136.566 176.385 136.256 176.032 135.993 175.623C135.735 175.219 135.527 174.759 135.385 174.256C135.239 173.753 135.162 173.214 135.162 172.645C135.162 171.978 135.275 171.336 135.468 170.753C135.665 170.166 135.95 169.63 136.303 169.181C136.657 168.726 137.076 168.35 137.55 168.087C138.021 167.818 138.542 167.665 139.089 167.643ZM210.893 167.643C211.44 167.665 211.962 167.818 212.428 168.087C212.902 168.35 213.325 168.726 213.675 169.181C214.032 169.63 214.317 170.166 214.514 170.753C214.707 171.336 214.816 171.978 214.816 172.645C214.816 173.214 214.74 173.753 214.598 174.256C214.452 174.759 214.248 175.219 213.989 175.623C213.726 176.032 213.413 176.385 213.059 176.673C212.705 176.958 212.312 177.173 211.889 177.304V187.436C212.312 187.567 212.705 187.782 213.059 188.067C213.413 188.351 213.726 188.701 213.989 189.109C214.248 189.518 214.452 189.977 214.598 190.477C214.74 190.972 214.816 191.512 214.816 192.077C214.816 192.748 214.707 193.39 214.514 193.977C214.317 194.564 214.032 195.096 213.675 195.548C213.325 196 212.902 196.372 212.428 196.634C211.962 196.901 211.44 197.054 210.893 197.076C210.339 197.097 209.818 196.981 209.34 196.751C208.863 196.518 208.429 196.171 208.064 195.741C207.7 195.307 207.408 194.782 207.204 194.199C206.996 193.612 206.887 192.963 206.887 192.278C206.887 191.702 206.967 191.147 207.116 190.633C207.266 190.119 207.481 189.642 207.751 189.219C208.017 188.799 208.341 188.428 208.706 188.132C209.071 187.833 209.475 187.604 209.905 187.461V177.279C209.475 177.136 209.071 176.903 208.706 176.608C208.341 176.309 208.017 175.941 207.751 175.514C207.481 175.095 207.266 174.614 207.116 174.096C206.967 173.578 206.887 173.024 206.887 172.444C206.887 171.762 206.996 171.117 207.204 170.53C207.408 169.943 207.7 169.418 208.064 168.984C208.429 168.551 208.863 168.204 209.34 167.974C209.818 167.737 210.339 167.621 210.893 167.643ZM253.502 233.884H248.595V130.838H253.502V233.884ZM101.387 130.838V233.884H96.4799V130.838H101.387ZM86.6689 81.7687V268.231H96.4799V243.695H101.387V268.231L148.003 258.417V106.302L101.387 96.4906V121.023H96.4799V91.5833H253.502V121.023H248.595V96.4906L201.979 106.302V258.417L248.595 268.231V243.695H253.502V268.231H263.317V81.7687H86.6689Z" fill="#B8A65D"/>
</g>
<path d="M36.8118 235.247C-6.07054 143.267 55.9597 35.8422 156.731 26.0094C187.829 22.9359 219.92 29.9068 246.651 46.0724C219.512 31.0151 187.746 24.5948 156.949 28.113C57.5237 39.1708 -2.40648 143.518 36.8118 235.247Z" fill="#C10B0E"/>
<path d="M303.607 105.102C356.045 200.732 289.406 318.606 180.72 323.983C147.554 325.657 113.856 315.875 87.0879 296.239C114.351 314.796 147.736 323.998 180.604 321.872C287.736 315.321 352.362 200.463 303.607 105.102Z" fill="#C10B0E"/>
<path d="M280.485 48.1833L282.457 67.9073L303.26 53.0833L285.917 71.8375L301.157 75.0094L285.585 77.062L300.409 97.8688L281.655 80.5219L278.367 100.702L276.431 80.1901L255.624 95.0177L272.971 76.2599L257.976 71.8813L273.303 71.0354L258.479 50.2323L277.233 67.5755L280.485 48.1833Z" fill="#C5C5C5"/>
<path d="M58.8253 243.305L60.794 263.029L81.6008 248.205L64.2539 266.959L79.4972 270.131L63.9222 272.187L78.7498 292.99L59.992 275.647L56.7034 295.823L54.7675 275.311L33.9644 290.139L51.3076 271.381L36.3159 267.003L51.6394 266.157L36.8154 245.354L55.5696 262.697L58.8253 243.305Z" fill="#C5C5C5"/>
<path d="M292.786 104.639L293.573 112.536L301.904 106.6L294.959 114.111L301.062 115.38L294.828 116.204L300.763 124.534L293.253 117.589L291.936 125.668L291.16 117.454L282.829 123.39L289.774 115.883L283.773 114.125L289.909 113.79L283.974 105.459L291.481 112.405L292.786 104.639Z" fill="#B8A65D"/>
<path d="M310.917 85.2104L311.31 89.1589L315.477 86.1912L312.003 89.9427L315.055 90.5808L311.937 90.9891L314.905 95.1563L311.15 91.6818L310.494 95.7214L310.103 91.6162L305.94 94.5839L309.411 90.8287L306.41 89.9537L309.48 89.7823L306.512 85.6188L310.268 89.0896L310.917 85.2104Z" fill="#B8A65D"/>
<path d="M306.057 135.614L306.454 139.563L310.618 136.595L307.147 140.35L310.198 140.984L307.077 141.396L310.049 145.564L306.294 142.089L305.634 146.129L305.247 142.023L301.08 144.991L304.555 141.236L301.55 140.357L304.62 140.19L301.652 136.026L305.408 139.497L306.057 135.614Z" fill="#B8A65D"/>
<path d="M323.302 105.244L323.892 111.169L330.141 106.717L324.931 112.35L329.507 113.302L324.833 113.918L329.284 120.167L323.652 114.957L322.664 121.016L322.08 114.858L315.835 119.31L321.041 113.677L316.539 112.361L321.143 112.106L316.692 105.86L322.325 111.067L323.302 105.244Z" fill="#B8A65D"/>
<path d="M252.332 59.1718L244.595 57.3854L251.541 49.8786L243.21 55.814L242.725 49.5979L241.117 55.6791L233.611 48.7338L239.546 57.0646L231.365 57.3453L239.411 59.1573L232.466 66.6677L240.797 60.7323L241.777 66.9083L242.889 60.8635L250.4 67.8088L244.464 59.4781L252.332 59.1718Z" fill="#B8A65D"/>
<path d="M273.904 43.6516L270.036 42.7583L273.511 39.0031L269.343 41.9708L269.103 38.8646L268.297 41.9052L264.542 38.4307L267.51 42.5979L263.419 42.7365L267.444 43.6443L263.973 47.3995L268.137 44.4318L268.625 47.5198L269.183 44.4974L272.938 47.9682L269.971 43.8047L273.904 43.6516Z" fill="#B8A65D"/>
<path d="M223.289 42.0766L219.421 41.1833L222.895 37.4281L218.728 40.3958L218.488 37.2896L217.682 40.3302L213.927 36.8594L216.894 41.0229L212.804 41.1651L216.829 42.0693L213.358 45.8245L217.521 42.8568L218.01 45.9448L218.568 42.9224L222.323 46.3969L219.355 42.2297L223.289 42.0766Z" fill="#B8A65D"/>
<path d="M255.599 28.8276L249.798 27.4896L255.008 21.8568L248.759 26.3083L248.398 21.6453L247.191 26.2063L241.558 21L246.01 27.2453L239.874 27.4568L245.912 28.8167L240.702 34.4495L246.951 29.9979L247.683 34.6281L248.518 30.0964L254.151 35.3063L249.7 29.0573L255.599 28.8276Z" fill="#B8A65D"/>
<path d="M184.093 16.6177L184.341 19.075L186.929 17.2266L184.771 19.5636L186.67 19.961L184.727 20.2162L186.576 22.8084L184.239 20.6464L183.83 23.1584L183.59 20.6063L180.998 22.4511L183.156 20.1141L181.289 19.5709L183.2 19.4651L181.351 16.8729L183.688 19.0349L184.093 16.6177Z" fill="#B8A65D"/>
<path d="M222.928 18.7578L223.154 21.0292L225.549 19.3229L223.551 21.4813L225.305 21.8458L223.515 22.0828L225.221 24.4745L223.063 22.4802L222.684 24.8026L222.461 22.4401L220.066 24.1464L222.06 21.988L220.336 21.4849L222.1 21.3865L220.394 18.9948L222.552 20.9891L222.928 18.7578Z" fill="#B8A65D"/>
<path d="M199.569 34.4531L199.796 36.7245L202.191 35.0182L200.193 37.1766L201.947 37.5411L200.156 37.7781L201.863 40.1734L199.704 38.1755L199.325 40.4979L199.103 38.1391L196.708 39.8453L198.705 37.687L196.977 37.1802L198.742 37.0854L197.036 34.6901L199.194 36.6844L199.569 34.4531Z" fill="#B8A65D"/>
<mask id="mask3_2941_11162" style="mask-type:luminance" maskUnits="userSpaceOnUse" x="200" y="10" width="10" height="11">
<path d="M200.667 10.8245H210V20.5333H200.667V10.8245Z" fill="white"/>
</mask>
<g mask="url(#mask3_2941_11162)">
<path d="M205.151 10.8245L205.494 14.2297L209.085 11.6703L206.092 14.9078L208.72 15.4547L206.033 15.812L208.593 19.4031L205.355 16.4099L204.786 19.8917L204.451 16.3515L200.86 18.9109L203.857 15.6734L201.268 14.9151L203.911 14.7693L201.352 11.1781L204.59 14.1713L205.151 10.8245Z" fill="#B8A65D"/>
</g>
<path d="M331.067 177.836L328.661 177.282L330.823 174.945L328.231 176.79L328.081 174.858L327.582 176.75L325.245 174.588L327.09 177.18L324.545 177.268L327.05 177.833L324.888 180.17L327.48 178.321L327.786 180.243L328.132 178.361L330.469 180.523L328.621 177.931L331.067 177.836Z" fill="#B8A65D"/>
<path d="M333.871 139.045L331.65 138.531L333.645 136.372L331.249 138.079L331.111 136.296L330.648 138.042L328.49 136.044L330.196 138.44L327.844 138.52L330.159 139.041L328.161 141.2L330.557 139.493L330.837 141.269L331.158 139.533L333.317 141.528L331.61 139.132L333.871 139.045Z" fill="#B8A65D"/>
<path d="M315.339 160.223L313.115 159.709L315.113 157.551L312.718 159.257L312.579 157.474L312.116 159.221L309.958 157.223L311.664 159.618L309.312 159.698L311.628 160.22L309.63 162.378L312.025 160.672L312.306 162.447L312.627 160.712L314.785 162.706L313.079 160.311L315.339 160.223Z" fill="#B8A65D"/>
<path d="M339.485 157.682L336.149 156.913L339.146 153.676L335.555 156.235L335.344 153.555L334.651 156.177L331.413 153.183L333.973 156.774L330.447 156.895L333.914 157.675L330.921 160.913L334.512 158.353L334.935 161.018L335.417 158.411L338.654 161.405L336.095 157.814L339.485 157.682Z" fill="#B8A65D"/>
<path d="M89.4541 286.129L97.1906 287.915L90.2452 295.426L98.576 289.49L99.0609 295.703L100.665 289.621L108.175 296.567L102.24 288.236L110.421 287.955L102.375 286.143L109.32 278.633L100.99 284.572L100.009 278.392L98.8968 284.437L91.3864 277.492L97.3218 285.822L89.4541 286.129Z" fill="#B8A65D"/>
<path d="M67.8818 301.653L71.7501 302.542L68.2756 306.297L72.4428 303.33L72.6834 306.436L73.4891 303.395L77.2443 306.87L74.273 302.706L78.3636 302.564L74.3423 301.66L77.8131 297.905L73.6495 300.872L73.161 297.784L72.6032 300.803L68.848 297.332L71.8157 301.496L67.8818 301.653Z" fill="#B8A65D"/>
<path d="M118.497 303.224L122.365 304.117L118.891 307.872L123.058 304.905L123.299 308.011L124.104 304.97L127.86 308.445L124.892 304.278L128.982 304.139L124.957 303.231L128.428 299.476L124.265 302.444L123.776 299.356L123.218 302.378L119.463 298.907L122.431 303.071L118.497 303.224Z" fill="#B8A65D"/>
<path d="M86.1841 316.477L91.9846 317.815L86.7784 323.447L93.0237 318.996L93.3882 323.655L94.595 319.094L100.228 324.304L95.7763 318.055L101.912 317.844L95.8747 316.488L101.085 310.855L94.8356 315.306L94.1028 310.672L93.2679 315.204L87.6351 309.998L92.0867 316.243L86.1841 316.477Z" fill="#B8A65D"/>
<path d="M49.4849 240.235L48.6974 232.338L40.3667 238.273L47.312 230.763L41.2089 229.494L47.4469 228.67L41.5078 220.34L49.0183 227.285L50.3344 219.206L51.111 227.42L59.4417 221.481L52.4964 228.991L58.5011 230.745L52.3615 231.084L58.3006 239.415L50.7901 232.469L49.4849 240.235Z" fill="#B8A65D"/>
<path d="M31.3544 259.664L30.9606 255.715L26.7935 258.683L30.2679 254.928L27.2164 254.293L30.3336 253.885L27.3659 249.718L31.1211 253.192L31.7773 249.149L32.1674 253.258L36.331 250.29L32.8601 254.045L35.8606 254.92L32.7945 255.092L35.7622 259.255L32.007 255.784L31.3544 259.664Z" fill="#B8A65D"/>
<path d="M36.2143 209.26L35.8205 205.311L31.6533 208.279L35.1278 204.524L32.0762 203.89L35.1934 203.478L32.2257 199.31L35.9809 202.785L36.6372 198.745L37.0273 202.851L41.1908 199.883L37.72 203.638L40.7205 204.513L37.6507 204.684L40.6184 208.848L36.8632 205.377L36.2143 209.26Z" fill="#B8A65D"/>
<path d="M18.9729 239.63L18.3786 233.705L12.1333 238.157L17.3396 232.524L12.764 231.572L17.4416 230.956L12.9901 224.707L18.6192 229.917L19.6073 223.858L20.1906 230.016L26.4359 225.564L21.2297 231.197L25.7323 232.513L21.1276 232.765L25.5828 239.014L19.95 233.804L18.9729 239.63Z" fill="#B8A65D"/>
<path d="M14.8022 164.482L17.2085 165.036L15.0465 167.373L17.6387 165.524L17.7918 167.46L18.2913 165.568L20.6283 167.727L18.7799 165.138L21.3246 165.051L18.82 164.485L20.9819 162.148L18.3897 163.997L18.0871 162.076L17.7408 163.953L15.4038 161.795L17.2486 164.387L14.8022 164.482Z" fill="#B8A65D"/>
<path d="M11.9985 203.273L14.2225 203.784L12.2246 205.942L14.6199 204.236L14.7584 206.022L15.2215 204.276L17.3798 206.27L15.6735 203.879L18.0251 203.798L15.7136 203.277L17.7079 201.119L15.3126 202.825L15.0319 201.05L14.711 202.785L12.5527 200.791L14.259 203.182L11.9985 203.273Z" fill="#B8A65D"/>
<path d="M30.5303 182.095L32.7542 182.605L30.76 184.764L33.1516 183.057L33.2938 184.844L33.7532 183.097L35.9115 185.092L34.2053 182.7L36.5568 182.62L34.2454 182.098L36.2396 179.94L33.848 181.646L33.5673 179.871L33.2464 181.606L31.0881 179.612L32.7943 182.004L30.5303 182.095Z" fill="#B8A65D"/>
<path d="M6.3877 184.636L9.71999 185.405L6.72676 188.643L10.3179 186.083L10.5257 188.763L11.2184 186.142L14.4559 189.135L11.8965 185.544L15.4257 185.423L11.9549 184.643L14.9481 181.406L11.357 183.965L10.9377 181.3L10.4564 183.907L7.21895 180.914L9.77832 184.505L6.3877 184.636Z" fill="#B8A65D"/>
<path d="M157.205 333.39L156.96 330.932L154.368 332.777L156.53 330.444L154.631 330.046L156.57 329.791L154.722 327.199L157.059 329.361L157.471 326.845L157.711 329.401L160.304 327.556L158.142 329.89L160.008 330.436L158.102 330.542L159.946 333.134L157.609 330.972L157.205 333.39Z" fill="#B8A65D"/>
<path d="M118.373 331.25L118.147 328.978L115.751 330.684L117.746 328.526L115.992 328.161L117.786 327.925L116.08 325.533L118.238 327.527L118.617 325.205L118.839 327.567L121.235 325.861L119.237 328.019L120.961 328.522L119.2 328.621L120.903 331.013L118.745 329.018L118.373 331.25Z" fill="#B8A65D"/>
<path d="M141.732 315.551L141.502 313.283L139.11 314.989L141.105 312.831L139.351 312.466L141.145 312.229L139.438 309.834L141.597 311.832L141.976 309.509L142.198 311.868L144.59 310.162L142.596 312.32L144.32 312.823L142.556 312.922L144.262 315.317L142.104 313.319L141.732 315.551Z" fill="#B8A65D"/>
<mask id="mask4_2941_11162" style="mask-type:luminance" maskUnits="userSpaceOnUse" x="131" y="329" width="10" height="11">
<path d="M131.6 329.467H140.933V339.124H131.6V329.467Z" fill="white"/>
</mask>
<g mask="url(#mask4_2941_11162)">
<path d="M136.147 339.179L135.807 335.778L132.216 338.333L135.21 335.096L132.577 334.549L135.268 334.195L132.708 330.604L135.946 333.597L136.511 330.116L136.847 333.656L140.438 331.096L137.444 334.334L140.033 335.089L137.386 335.234L139.945 338.825L136.708 335.832L136.147 339.179Z" fill="#B8A65D"/>
</g>
<path d="M69.4339 250.075C66.798 250.075 64.4027 249.586 62.2443 248.616C60.086 247.654 58.223 246.323 56.6589 244.621C55.0912 242.911 53.8881 240.968 53.0423 238.787C52.2037 236.6 51.7881 234.288 51.7881 231.846C51.7881 229.611 52.1235 227.409 52.7943 225.239C53.4652 223.063 54.486 221.083 55.8568 219.304C57.2277 217.525 58.9667 216.107 61.0777 215.046C63.1959 213.988 65.7006 213.456 68.5881 213.456C71.5813 213.456 74.1808 213.966 76.3902 214.987C78.6068 216.008 80.4298 217.375 81.8589 219.085C83.2881 220.788 84.3527 222.716 85.0527 224.875C85.7527 227.033 86.1027 229.246 86.1027 231.51C86.1027 234.223 85.6943 236.716 84.8777 238.991C84.0683 241.259 82.9235 243.228 81.436 244.898C79.9558 246.56 78.1912 247.836 76.1423 248.733C74.1006 249.626 71.862 250.075 69.4339 250.075ZM69.4339 243.06C71.1037 243.06 72.6568 242.648 74.086 241.821C75.5152 240.997 76.66 239.702 77.5277 237.941C78.4027 236.173 78.8402 233.873 78.8402 231.044C78.8402 228.615 78.3626 226.618 77.411 225.05C76.4558 223.475 75.2235 222.315 73.7068 221.564C72.1975 220.806 70.6188 220.427 68.9673 220.427C67.0897 220.427 65.5037 220.762 64.2131 221.433C62.9298 222.104 61.8943 223.008 61.1068 224.146C60.3266 225.276 59.7688 226.537 59.4298 227.937C59.098 229.337 58.9339 230.781 58.9339 232.269C58.9339 233.727 59.211 235.109 59.7652 236.41C60.3266 237.704 61.0923 238.853 62.0548 239.852C63.0245 240.844 64.1402 241.627 65.3943 242.2C66.6558 242.776 68.0048 243.06 69.4339 243.06Z" fill="#F8F8F2"/>
<path d="M102.566 250.746C100.66 250.746 98.8951 250.52 97.2727 250.075C95.6466 249.626 94.1737 249.054 92.8539 248.354C91.5414 247.654 90.3675 246.91 89.3394 246.123L93.1164 240.041C94.2904 241.132 95.4243 241.974 96.5144 242.564C97.6118 243.148 98.7529 243.552 99.9414 243.775C101.126 244.001 102.421 244.11 103.821 244.11C105.024 244.11 105.994 243.95 106.723 243.629C107.452 243.308 107.816 242.896 107.816 242.389C107.816 241.974 107.466 241.646 106.766 241.412C106.066 241.172 105.166 240.957 104.069 240.771C102.978 240.588 101.83 240.359 100.627 240.085C98.9243 239.629 97.331 239.108 95.8435 238.525C94.3633 237.934 93.1675 237.136 92.256 236.133C91.3409 235.123 90.8852 233.778 90.8852 232.094C90.8852 230.752 91.206 229.571 91.8477 228.55C92.4966 227.529 93.3644 226.679 94.4435 225.998C95.5227 225.309 96.7477 224.798 98.1185 224.466C99.4894 224.127 100.904 223.956 102.362 223.956C104.878 223.956 107.051 224.259 108.881 224.86C110.719 225.454 112.476 226.242 114.16 227.223L110.339 233.027C109.494 232.436 108.531 231.926 107.452 231.496C106.38 231.058 105.308 230.723 104.229 230.489C103.15 230.249 102.147 230.125 101.225 230.125C100.211 230.125 99.4201 230.282 98.8477 230.591C98.2716 230.894 97.9873 231.328 97.9873 231.889C97.9873 232.221 98.3409 232.538 99.0519 232.837C99.7701 233.129 101.137 233.515 103.15 233.989C104.353 234.274 105.629 234.558 106.971 234.85C108.32 235.141 109.588 235.55 110.777 236.075C111.962 236.593 112.924 237.329 113.664 238.291C114.412 239.254 114.787 240.537 114.787 242.141C114.787 244.825 113.708 246.932 111.55 248.456C109.399 249.98 106.406 250.746 102.566 250.746Z" fill="#F8F8F2"/>
<path d="M130.706 250.614C128.022 250.614 125.664 250.089 123.633 249.039C121.598 247.989 120.016 246.527 118.879 244.65C117.748 242.776 117.187 240.607 117.187 238.146C117.187 236.658 117.435 235.098 117.931 233.464C118.434 231.824 119.247 230.293 120.366 228.871C121.493 227.441 122.969 226.282 124.8 225.385C126.637 224.481 128.872 224.029 131.508 224.029C133.411 224.029 135.011 224.244 136.306 224.671C137.607 225.09 138.672 225.633 139.5 226.304C140.323 226.975 140.958 227.689 141.395 228.448C141.833 229.206 142.125 229.932 142.27 230.621C142.423 231.302 142.504 231.868 142.504 232.312C142.504 235.025 141.359 237.118 139.077 238.583C136.802 240.052 133.579 240.785 129.408 240.785C128.453 240.785 127.548 240.749 126.695 240.669C125.839 240.581 125.047 240.486 124.318 240.377C124.851 241.777 125.733 242.809 126.958 243.469C128.19 244.121 129.47 244.446 130.793 244.446C132.696 244.446 134.373 244.107 135.825 243.425C137.283 242.736 138.657 241.675 139.952 240.246L143.685 245.627C142.788 246.356 141.789 247.111 140.681 247.887C139.572 248.675 138.22 249.324 136.627 249.841C135.03 250.356 133.057 250.614 130.706 250.614ZM131.625 230.329C129.969 230.329 128.511 230.752 127.25 231.598C125.995 232.436 125.077 233.537 124.493 234.908C125.193 235.025 125.882 235.12 126.564 235.185C127.253 235.255 127.935 235.287 128.606 235.287C129.218 235.287 129.922 235.236 130.72 235.127C131.526 235.01 132.314 234.843 133.083 234.616C133.848 234.394 134.486 234.106 134.993 233.756C135.496 233.406 135.752 232.994 135.752 232.516C135.752 232.294 135.639 232.017 135.416 231.685C135.19 231.346 134.782 231.036 134.191 230.752C133.608 230.471 132.751 230.329 131.625 230.329Z" fill="#F8F8F2"/>
<path d="M147.877 250.585L146.827 245.073C147.195 244.938 147.633 244.81 148.14 244.694C149.004 244.139 149.999 243.396 151.129 242.462C152.267 241.522 153.437 240.49 154.644 239.371C155.847 238.244 157.01 237.132 158.129 236.031C159.245 234.923 160.222 233.924 161.06 233.027C161.906 232.134 162.526 231.434 162.927 230.927C163.062 230.734 163.153 230.588 163.204 230.489C163.263 230.384 163.292 230.314 163.292 230.285C163.292 230.314 163.095 230.329 162.708 230.329C162.318 230.329 161.968 230.329 161.658 230.329C160.645 230.329 159.42 230.409 157.983 230.562C156.543 230.719 154.997 230.952 153.346 231.262C151.691 231.565 150.039 231.984 148.388 232.516L147.133 225.75C150.01 225.196 152.755 224.773 155.373 224.481C157.998 224.182 160.47 224.029 162.796 224.029C163.689 224.029 164.648 224.058 165.669 224.116C166.69 224.175 167.659 224.343 168.585 224.612C169.508 224.875 170.263 225.309 170.846 225.91C171.437 226.505 171.735 227.336 171.735 228.404C171.735 229.162 171.418 230.096 170.788 231.204C170.164 232.305 169.285 233.519 168.148 234.85C167.01 236.184 165.691 237.577 164.196 239.035C162.697 240.486 161.082 241.937 159.354 243.396C160.889 243.308 162.417 243.264 163.933 243.264C166.081 243.264 167.98 243.308 169.635 243.396C171.287 243.483 172.381 243.596 172.917 243.731L172.96 250.279C172.173 250.228 170.908 250.181 169.169 250.133C167.437 250.093 165.523 250.075 163.423 250.075C161.458 250.075 159.46 250.093 157.429 250.133C155.406 250.181 153.543 250.239 151.844 250.308C150.152 250.374 148.829 250.469 147.877 250.585Z" fill="#F8F8F2"/>
<path d="M187.527 250.323C187.527 245.959 187.589 242.021 187.716 238.51C187.84 234.992 188.008 231.784 188.212 228.885C188.424 225.99 188.664 223.285 188.927 220.777C189.197 218.269 189.459 215.87 189.714 213.573L196.933 213.864C196.824 214.739 196.703 215.68 196.569 216.679C197.509 217.973 198.552 219.446 199.689 221.098C200.827 222.753 201.986 224.496 203.175 226.333C204.371 228.163 205.541 229.994 206.689 231.831C207.834 233.661 208.924 235.411 209.956 237.081C210.995 238.744 211.903 240.231 212.683 241.544C212.887 239.619 212.989 236.906 212.989 233.406C212.989 231.609 212.96 229.76 212.902 227.864C212.844 225.961 212.771 224.131 212.683 222.381C212.603 220.631 212.494 219.063 212.348 217.671C212.209 216.282 212.06 215.199 211.896 214.419L219.785 213.456C219.844 214.827 219.876 216.628 219.887 218.852C219.906 221.079 219.916 223.438 219.916 225.925C219.916 228.134 219.902 230.351 219.873 232.575C219.844 234.802 219.785 236.855 219.698 238.729C219.617 240.607 219.497 242.163 219.333 243.396C219.02 245.809 218.403 247.585 217.481 248.733C216.555 249.878 215.253 250.454 213.573 250.454C212.202 250.454 210.948 249.976 209.81 249.025C208.68 248.07 207.455 246.502 206.135 244.314C205.238 242.809 204.196 241.07 203 239.094C201.811 237.121 200.583 235.098 199.31 233.027C198.034 230.956 196.809 228.984 195.635 227.106C195.409 230.384 195.241 233.654 195.125 236.921C195.015 240.18 194.964 243.119 194.964 245.744C194.964 246.589 194.964 247.381 194.964 248.121C194.964 248.857 194.979 249.553 195.008 250.206L187.527 250.323Z" fill="#F8F8F2"/>
<path d="M237.434 250.702C235.188 250.702 233.226 250.337 231.556 249.608C229.894 248.879 228.516 247.876 227.429 246.604C226.339 245.332 225.526 243.87 224.994 242.214C224.458 240.563 224.192 238.827 224.192 237.008C224.192 235.163 224.52 233.45 225.184 231.875C225.843 230.293 226.751 228.911 227.911 227.733C229.077 226.559 230.441 225.64 232.009 224.977C233.573 224.317 235.279 223.985 237.127 223.985C239.06 223.985 240.853 224.328 242.509 225.006C244.16 225.677 245.6 226.618 246.825 227.821C248.058 229.016 249.02 230.427 249.713 232.05C250.402 233.676 250.748 235.44 250.748 237.344C250.748 241.573 249.581 244.861 247.248 247.202C244.922 249.535 241.652 250.702 237.434 250.702ZM237.39 243.906C239.431 243.906 240.992 243.334 242.071 242.185C243.15 241.03 243.69 239.378 243.69 237.227C243.69 235.295 243.099 233.738 241.925 232.56C240.748 231.386 239.205 230.796 237.302 230.796C236.154 230.796 235.104 231.098 234.152 231.7C233.197 232.305 232.435 233.1 231.863 234.091C231.287 235.083 231.002 236.184 231.002 237.387C231.002 238.459 231.214 239.498 231.644 240.508C232.081 241.511 232.774 242.327 233.729 242.958C234.681 243.593 235.902 243.906 237.39 243.906Z" fill="#F8F8F2"/>
<path d="M266.702 250.614C264.019 250.614 261.66 250.089 259.629 249.039C257.595 247.989 256.012 246.527 254.875 244.65C253.745 242.776 253.183 240.607 253.183 238.146C253.183 236.658 253.431 235.098 253.927 233.464C254.43 231.824 255.243 230.293 256.362 228.871C257.489 227.441 258.965 226.282 260.796 225.385C262.633 224.481 264.868 224.029 267.504 224.029C269.407 224.029 271.008 224.244 272.302 224.671C273.603 225.09 274.668 225.633 275.496 226.304C276.32 226.975 276.954 227.689 277.391 228.448C277.829 229.206 278.121 229.932 278.266 230.621C278.42 231.302 278.5 231.868 278.5 232.312C278.5 235.025 277.355 237.118 275.073 238.583C272.798 240.052 269.575 240.785 265.404 240.785C264.449 240.785 263.545 240.749 262.691 240.669C261.835 240.581 261.044 240.486 260.314 240.377C260.847 241.777 261.729 242.809 262.954 243.469C264.186 244.121 265.466 244.446 266.789 244.446C268.692 244.446 270.37 244.107 271.821 243.425C273.279 242.736 274.653 241.675 275.948 240.246L279.681 245.627C278.784 246.356 277.785 247.111 276.677 247.887C275.569 248.675 274.216 249.324 272.623 249.841C271.026 250.356 269.053 250.614 266.702 250.614ZM267.621 230.329C265.965 230.329 264.507 230.752 263.246 231.598C261.991 232.436 261.073 233.537 260.489 234.908C261.189 235.025 261.878 235.12 262.56 235.185C263.249 235.255 263.931 235.287 264.602 235.287C265.214 235.287 265.918 235.236 266.716 235.127C267.522 235.01 268.31 234.843 269.079 234.616C269.845 234.394 270.483 234.106 270.989 233.756C271.492 233.406 271.748 232.994 271.748 232.516C271.748 232.294 271.635 232.017 271.412 231.685C271.186 231.346 270.778 231.036 270.187 230.752C269.604 230.471 268.747 230.329 267.621 230.329ZM270.931 219.8C269.998 219.8 269.247 219.501 268.685 218.896C268.131 218.294 267.854 217.51 267.854 216.548C267.854 215.673 268.105 214.984 268.612 214.477C269.126 213.963 269.859 213.704 270.814 213.704C271.142 213.704 271.562 213.773 272.069 213.908C272.583 214.047 273.035 214.331 273.425 214.769C273.822 215.206 274.023 215.877 274.023 216.781C274.023 217.474 273.789 218.148 273.323 218.808C272.856 219.472 272.058 219.8 270.931 219.8ZM261.962 220.004C261.222 220.004 260.537 219.752 259.906 219.246C259.272 218.743 258.958 217.933 258.958 216.825C258.958 215.873 259.242 215.177 259.819 214.739C260.402 214.295 261.076 214.069 261.846 214.069C262.972 214.069 263.774 214.368 264.252 214.958C264.726 215.552 264.966 216.263 264.966 217.087C264.966 218.043 264.649 218.764 264.019 219.26C263.384 219.756 262.699 220.004 261.962 220.004Z" fill="#F8F8F2"/>
<path d="M291.106 250.585C289.56 250.585 288.292 250.253 287.3 249.594C286.308 248.93 285.525 248.026 284.952 246.881C284.376 245.736 283.953 244.424 283.683 242.944C283.421 241.456 283.253 239.866 283.188 238.175C283.118 236.476 283.085 234.773 283.085 233.071C283.085 231.583 283.122 229.95 283.202 228.171C283.29 226.391 283.395 224.59 283.523 222.76C283.647 220.923 283.789 219.195 283.946 217.569C284.099 215.946 284.245 214.532 284.383 213.325L291.981 213.412C291.755 214.841 291.547 216.46 291.354 218.269C291.157 220.07 290.997 221.893 290.873 223.737C290.745 225.586 290.647 227.296 290.581 228.871C290.512 230.438 290.479 231.682 290.479 232.604C290.479 235.152 290.527 237.154 290.625 238.612C290.72 240.063 290.873 241.088 291.077 241.689C291.289 242.295 291.577 242.594 291.938 242.594C292.411 242.594 292.933 242.295 293.498 241.689C294.059 241.088 294.606 240.413 295.131 239.662L298.704 246.75C297.836 247.701 296.801 248.576 295.598 249.375C294.391 250.181 292.893 250.585 291.106 250.585Z" fill="#F8F8F2"/>
</svg>
